<svg version="1.1" xmlns="http://www.w3.org/2000/svg" width="12" height="12" viewBox="0 0 34 34" preserveAspectRatio="none">
<g transform="matrix(0 1-1 0 34 0)">
<path fill="#ffffcc" d="M-17-17v68h68v-68z"/>
<path fill="#ffff88" fill-rule="evenodd" d="M17 8c1 2 5 8 6 9c-1 1-5 7-6 9c-1-2-5-8-6-9c1-1 5-7 6-9zM0 -9c1 2 5 8 6 9c-1 1-5 7-6 9c-1-2-5-8-6-9c1-1 5-7 6-9zM34 -9c1 2 5 8 6 9c-1 1-5 7-6 9c-1-2-5-8-6-9c1-1 5-7 6-9zM0 25c1 2 5 8 6 9c-1 1-5 7-6 9c-1-2-5-8-6-9c1-1 5-7 6-9zM34 25c1 2 5 8 6 9c-1 1-5 7-6 9c-1-2-5-8-6-9c1-1 5-7 6-9z"/>
</g>
</svg>